HIERARCHY
ROOT hip
{
  OFFSET 0.0 0.0 0.0
  CHANNELS 6 Xposition Yposition Zposition Zrotation Yrotation Xrotation
  JOINT torso
  {
    OFFSET 0.0 0.0 0.0
    CHANNELS 3 Zrotation Xrotation Yrotation
    JOINT neck
    {
      OFFSET -31.42098999999993 328.8025209999999 74.3554680000002
      CHANNELS 3 Zrotation Xrotation Yrotation
      JOINT head
      {
        OFFSET 3.3519900000001144 303.81732099999994 206.53942900000015
        CHANNELS 3 Zrotation Xrotation Yrotation
        End Site
        {
          OFFSET 0.0 0.0 0.0
        }
      }
    }
    JOINT left_collar
    {
      OFFSET -31.42098999999993 328.8025209999999 74.3554680000002
      CHANNELS 3 Zrotation Xrotation Yrotation
      JOINT left_upper_arm
      {
        OFFSET -124.490479 -8.162841999999841 8.226441000000023
        CHANNELS 3 Zrotation Xrotation Yrotation
        JOINT left_forearm
        {
          OFFSET -253.595764 -1.5758060000000569 105.0729980000001
          CHANNELS 3 Zrotation Xrotation Yrotation
          JOINT left_hand
          {
            OFFSET -269.48803699999996 0.1478270000000066 -55.346191999999974
            CHANNELS 3 Zrotation Xrotation Yrotation
            End Site
            {
              OFFSET 0.0 0.0 0.0
            }
          }
        }
      }
    }
    JOINT right_collar
    {
      OFFSET -31.42098999999993 328.8025209999999 74.3554680000002
      CHANNELS 3 Zrotation Xrotation Yrotation
      JOINT right_upper_arm
      {
        OFFSET 162.02484099999998 0.46441600000002836 2.2303470000001653
        CHANNELS 3 Zrotation Xrotation Yrotation
        JOINT right_forearm
        {
          OFFSET 240.01246700000004 -25.835875999999985 121.34179699999959
          CHANNELS 3 Zrotation Xrotation Yrotation
          JOINT right_hand
          {
            OFFSET 252.48539699999992 18.910399999999868 -67.53466800000001
            CHANNELS 3 Zrotation Xrotation Yrotation
            End Site
            {
              OFFSET 0.0 0.0 0.0
            }
          }
        }
      }
    }
  }
}
MOTION
Frames: 8
Frame Time: 0.01
-530.8337434452268 292.1588430766198 602.2480046825665 11.199353420169952 -1.1281848097531038 35.67833589744895 -2.3196349171707404 5.749787356674637 0.9671413662672885 0.8086492398436471 -10.754182931475833 -0.47633658968203646 0.0 0.0 0.0 -1.6773156020773412 0.411134250200884 -10.182033997333034 44.4926910556473 6.818849762611379 28.089372304389375 43.71475995351772 -4.999991195730797 -10.799560575122602 0.0 0.0 0.0 -3.3424209952199035 -0.04782435622775347 -3.566754072949408 -17.37562152437679 21.540058062415735 34.237570477190445 5.832728440195688 -0.24759436661260215 14.359046680057125 0.0 100.0 0.0
-530.7988856039434 292.2396298243101 602.396931766351 11.20275964413262 -1.1078093525278672 35.6645142388955 -2.3213523393382167 5.756388968622881 0.9679609077201844 0.8080338851847866 -10.776786681686954 -0.47574321727264324 0.0 0.0 0.0 -1.6783973443979308 0.4108642608985281 -10.180084662612652 44.48379234024302 6.808525723183395 28.11012544284739 43.74648122071091 -5.007678486199166 -10.790440785595843 0.0 0.0 0.0 -3.3458974375057777 -0.04784591941960778 -3.5652798728464186 -17.382580740647136 21.54758253855372 34.23888815665774 5.825849158010809 -0.25318399399038455 14.396644613421156 0.0 100.0 0.0
-530.7656286228996 292.31918169893544 602.5485243332654 11.205933487072397 -1.0862500358463802 35.65032105684099 -2.3231229573617584 5.761576973744597 0.9686792333811075 0.8072940356355347 -10.799503027297082 -0.47505846219456566 0.0 0.0 0.0 -1.6798479563923268 0.410471400501188 -10.176874809762706 44.474750448567534 6.798696546199499 28.12965968292406 43.776066745284666 -5.014989793120113 -10.781600699196945 0.0 0.0 0.0 -3.3487466497844127 -0.04784600345386996 -3.5634072254102307 -17.391322842073276 21.55655410138651 34.239486940262694 5.817020213603029 -0.25906744476068494 14.434501652710557 0.0 100.0 0.0
-530.7347165481268 292.39718958407263 602.7027927828693 11.208940694787575 -1.0637223661570907 35.63611939502075 -2.3249357514620272 5.765435211324615 0.9693009934756915 0.806502596616116 -10.82198352451856 -0.47433758366189627 0.0 0.0 0.0 -1.6816735192291283 0.4099765536538035 -10.172824432254938 44.46567485129511 6.789428160040525 28.147863157547924 43.80318823167843 -5.021934680871042 -10.772911992597551 0.0 0.0 0.0 -3.3509872081088856 -0.04783426488674077 -3.5614897987282688 -17.40164357630094 21.566802044584183 34.239438658988206 5.806668625626077 -0.26516193354250145 14.472436243988225 0.0 100.0 0.0
-530.7069083330622 292.4733755348231 602.8597328173059 11.211851970659756 -1.0404953356367825 35.62229938158223 -2.3267713302572695 5.76809824999195 0.9698333229760162 0.805736717187189 -10.843897282764887 -0.47363884586960725 0.0 0.0 0.0 -1.6838790031558837 0.40940255410677306 -10.168387968137694 44.45666498596831 6.780783718647999 28.164626132320574 43.82755147035663 -5.0285285713875 -10.764242618908016 0.0 0.0 0.0 -3.3526481115785804 -0.04782102150064548 -3.559898264754098 -17.413324886074616 21.578135473603787 34.23880110039125 5.795231629292723 -0.2713822834159733 14.510253435802474 0.0 100.0 0.0
-530.6829695975119 292.54750163355146 603.0193286330469 11.214742690917308 -1.0168882978918306 35.60927411378346 -2.3286020332764235 5.76975034113664 0.9702857728235943 0.8050773655818049 -10.864937921453144 -0.47302316492841584 0.0 0.0 0.0 -1.6864696152485752 0.40877360412640884 -10.164047503218802 44.44780611277348 6.772821660955364 28.179843967244743 43.848905375884215 -5.034790568598563 -10.755464981486778 0.0 0.0 0.0 -3.353769088696336 -0.047817117193087816 -3.5590156612894326 -17.426136011776695 21.590345162175183 34.237619640783 5.7831463610608775 -0.2776422881427938 14.54774416932415 0.0 100.0 0.0
-530.663664367651 292.6193768004684 603.1815566516177 11.21769244603066 -0.9932658370053536 35.597474550345055 -2.3303925052174557 5.770622417539861 0.9706701710019036 0.8046088024586238 -10.88482968502888 -0.4725536843462848 0.0 0.0 0.0 -1.6894520032686362 0.4081146601232569 -10.16030489691927 44.439165918273744 6.765593784836946 28.193420363032665 43.86704981897907 -5.040741257610345 -10.746463761581552 0.0 0.0 0.0 -3.3544007813829118 -0.0478337684144701 -3.559232086380847 -17.439834397751603 21.603205716931917 34.23592998711998 5.770840670226697 -0.2838559700388067 14.58468524978394 0.0 100.0 0.0
-530.649746824239 292.6888613029818 603.3463896563816 11.220784318392848 -0.9700304709336708 35.587343308070544 -2.33210071895852 5.7709869776803755 0.9710003981369164 0.8044178836966689 -10.903332565975868 -0.472295230554079 0.0 0.0 0.0 -1.6928352085868406 0.4074507956908079 -10.157672712509244 44.43079203036523 6.75914343557486 28.205270715062667 43.88184192578694 -5.046400596796016 -10.737143023071873 0.0 0.0 0.0 -3.354604747395825 -0.047882388247759054 -3.5609385453496625 -17.45416649181347 21.61647804424958 34.23376181343652 5.758725319940133 -0.289938717551969 14.620840150739117 0.0 100.0 0.0
